<?xml version="1.0" standalone="no"?>
<!DOCTYPE svg PUBLIC "-//W3C//DTD SVG 20010904//EN"
 "http://www.w3.org/TR/2001/REC-SVG-20010904/DTD/svg10.dtd">
<svg version="1.0" xmlns="http://www.w3.org/2000/svg"
 width="512.000000pt" height="512.000000pt" viewBox="0 0 512.000000 512.000000"
 preserveAspectRatio="xMidYMid meet">
<metadata>
Created by potrace 1.14, written by Peter Selinger 2001-2017
</metadata>
<g transform="translate(0.000000,512.000000) scale(0.100000,-0.100000)"
fill="#000000" stroke="none">
<path d="M2107 5099 c-69 -20 -141 -52 -162 -73 -7 -6 -26 -22 -44 -36 -43
-32 -130 -166 -174 -266 -19 -44 -69 -182 -110 -306 -42 -124 -91 -258 -111
-297 -48 -98 -63 -171 -48 -245 18 -90 83 -170 160 -197 l30 -10 -3 -82 c-2
-45 -6 -100 -8 -122 -3 -22 -9 -65 -12 -95 -4 -30 -13 -93 -20 -140 -8 -47
-16 -101 -19 -120 -3 -19 -10 -60 -16 -90 -6 -30 -13 -66 -15 -80 -12 -66 -47
-228 -75 -345 -32 -133 -85 -370 -93 -415 -3 -14 -8 -36 -11 -50 -3 -14 -8
-36 -10 -50 -3 -14 -12 -61 -21 -104 -17 -89 -16 -82 -44 -261 -11 -71 -23
-155 -26 -185 -4 -30 -8 -66 -10 -80 -2 -14 -7 -56 -10 -95 -4 -38 -9 -83 -11
-100 -2 -16 -6 -68 -9 -115 -4 -47 -8 -103 -10 -125 -3 -22 -7 -110 -11 -196
-6 -134 -4 -165 11 -212 28 -89 114 -165 208 -182 34 -7 37 -9 23 -24 -24 -26
-73 -144 -86 -205 -20 -97 -16 -147 15 -173 l26 -23 458 0 c488 0 479 -1 504
50 13 25 13 25 155 25 110 0 142 -3 142 -13 0 -7 11 -24 25 -37 24 -24 28 -25
180 -25 154 0 156 0 182 26 24 24 25 30 19 97 -8 100 -46 212 -92 274 l-16 23
304 0 c344 0 375 5 448 67 105 90 198 416 187 658 -8 176 -57 300 -164 416
-146 158 -365 229 -598 195 -187 -28 -420 -127 -582 -248 -29 -21 -53 -34 -53
-29 0 13 125 446 159 549 73 223 114 373 155 567 39 184 57 300 72 460 3 33 7
71 9 85 17 98 23 512 12 691 -16 249 -56 506 -108 697 -10 41 -22 90 -25 110
-10 68 -54 184 -89 236 -71 106 -144 165 -260 211 -93 37 -227 43 -328 14z"/>
</g>
</svg>
